<mxfile host="app.diagrams.net" agent="Mozilla/5.0 (X11; Linux x86_64; rv:141.0) Gecko/20100101 Firefox/141.0" version="28.0.4">
  <diagram id="C5RBs43oDa-KdzZeNtuy" name="Page-1">
    <mxGraphModel dx="1508" dy="1999" grid="1" gridSize="10" guides="1" tooltips="1" connect="1" arrows="1" fold="1" page="1" pageScale="1" pageWidth="900" pageHeight="1600" background="light-dark(#FFFFFF,#0F0E0F)" math="0" shadow="0">
      <root>
        <mxCell id="WIyWlLk6GJQsqaUBKTNV-0" />
        <mxCell id="WIyWlLk6GJQsqaUBKTNV-1" parent="WIyWlLk6GJQsqaUBKTNV-0" />
        <mxCell id="CsUE58t2KNsDiMUx0Mvf-5" value="Models" style="swimlane;startSize=23;" parent="WIyWlLk6GJQsqaUBKTNV-1" vertex="1">
          <mxGeometry x="-860" y="-1090" width="1200" height="1110" as="geometry" />
        </mxCell>
        <mxCell id="CsUE58t2KNsDiMUx0Mvf-6" value="&lt;div&gt;SizeOption&lt;/div&gt;" style="swimlane;fontStyle=0;childLayout=stackLayout;horizontal=1;startSize=26;fillColor=none;horizontalStack=0;resizeParent=1;resizeParentMax=0;resizeLast=0;collapsible=1;marginBottom=0;whiteSpace=wrap;html=1;" parent="CsUE58t2KNsDiMUx0Mvf-5" vertex="1">
          <mxGeometry x="70" y="440" width="140" height="104" as="geometry">
            <mxRectangle x="70" y="440" width="100" height="30" as="alternateBounds" />
          </mxGeometry>
        </mxCell>
        <mxCell id="CsUE58t2KNsDiMUx0Mvf-7" value="- id: Long" style="text;strokeColor=none;fillColor=none;align=left;verticalAlign=top;spacingLeft=4;spacingRight=4;overflow=hidden;rotatable=0;points=[[0,0.5],[1,0.5]];portConstraint=eastwest;whiteSpace=wrap;html=1;" parent="CsUE58t2KNsDiMUx0Mvf-6" vertex="1">
          <mxGeometry y="26" width="140" height="26" as="geometry" />
        </mxCell>
        <mxCell id="CsUE58t2KNsDiMUx0Mvf-8" value="- name: String" style="text;strokeColor=none;fillColor=none;align=left;verticalAlign=top;spacingLeft=4;spacingRight=4;overflow=hidden;rotatable=0;points=[[0,0.5],[1,0.5]];portConstraint=eastwest;whiteSpace=wrap;html=1;" parent="CsUE58t2KNsDiMUx0Mvf-6" vertex="1">
          <mxGeometry y="52" width="140" height="26" as="geometry" />
        </mxCell>
        <mxCell id="CsUE58t2KNsDiMUx0Mvf-9" value="&lt;div&gt;- region: String&lt;/div&gt;&lt;div&gt;&lt;br&gt;&lt;/div&gt;" style="text;strokeColor=none;fillColor=none;align=left;verticalAlign=top;spacingLeft=4;spacingRight=4;overflow=hidden;rotatable=0;points=[[0,0.5],[1,0.5]];portConstraint=eastwest;whiteSpace=wrap;html=1;" parent="CsUE58t2KNsDiMUx0Mvf-6" vertex="1">
          <mxGeometry y="78" width="140" height="26" as="geometry" />
        </mxCell>
        <mxCell id="CsUE58t2KNsDiMUx0Mvf-10" value="&lt;div&gt;Category&lt;/div&gt;" style="swimlane;fontStyle=0;childLayout=stackLayout;horizontal=1;startSize=26;fillColor=none;horizontalStack=0;resizeParent=1;resizeParentMax=0;resizeLast=0;collapsible=1;marginBottom=0;whiteSpace=wrap;html=1;" parent="CsUE58t2KNsDiMUx0Mvf-5" vertex="1">
          <mxGeometry x="180" y="180" width="160" height="156" as="geometry">
            <mxRectangle x="50" y="140" width="100" height="30" as="alternateBounds" />
          </mxGeometry>
        </mxCell>
        <mxCell id="CsUE58t2KNsDiMUx0Mvf-11" value="- id: Long" style="text;strokeColor=none;fillColor=none;align=left;verticalAlign=top;spacingLeft=4;spacingRight=4;overflow=hidden;rotatable=0;points=[[0,0.5],[1,0.5]];portConstraint=eastwest;whiteSpace=wrap;html=1;" parent="CsUE58t2KNsDiMUx0Mvf-10" vertex="1">
          <mxGeometry y="26" width="160" height="26" as="geometry" />
        </mxCell>
        <mxCell id="CsUE58t2KNsDiMUx0Mvf-14" value="&lt;div&gt;- name: String&lt;/div&gt;" style="text;strokeColor=none;fillColor=none;align=left;verticalAlign=top;spacingLeft=4;spacingRight=4;overflow=hidden;rotatable=0;points=[[0,0.5],[1,0.5]];portConstraint=eastwest;whiteSpace=wrap;html=1;" parent="CsUE58t2KNsDiMUx0Mvf-10" vertex="1">
          <mxGeometry y="52" width="160" height="26" as="geometry" />
        </mxCell>
        <mxCell id="CsUE58t2KNsDiMUx0Mvf-12" value="&lt;div&gt;- slug: String&lt;/div&gt;" style="text;strokeColor=none;fillColor=none;align=left;verticalAlign=top;spacingLeft=4;spacingRight=4;overflow=hidden;rotatable=0;points=[[0,0.5],[1,0.5]];portConstraint=eastwest;whiteSpace=wrap;html=1;" parent="CsUE58t2KNsDiMUx0Mvf-10" vertex="1">
          <mxGeometry y="78" width="160" height="26" as="geometry" />
        </mxCell>
        <mxCell id="CsUE58t2KNsDiMUx0Mvf-13" value="&lt;div&gt;- parentCategory: Category&lt;/div&gt;&lt;div&gt;&lt;br&gt;&lt;/div&gt;" style="text;strokeColor=none;fillColor=none;align=left;verticalAlign=top;spacingLeft=4;spacingRight=4;overflow=hidden;rotatable=0;points=[[0,0.5],[1,0.5]];portConstraint=eastwest;whiteSpace=wrap;html=1;" parent="CsUE58t2KNsDiMUx0Mvf-10" vertex="1">
          <mxGeometry y="104" width="160" height="26" as="geometry" />
        </mxCell>
        <mxCell id="CsUE58t2KNsDiMUx0Mvf-16" value="- childrent: []Category" style="text;strokeColor=none;fillColor=none;align=left;verticalAlign=top;spacingLeft=4;spacingRight=4;overflow=hidden;rotatable=0;points=[[0,0.5],[1,0.5]];portConstraint=eastwest;whiteSpace=wrap;html=1;" parent="CsUE58t2KNsDiMUx0Mvf-10" vertex="1">
          <mxGeometry y="130" width="160" height="26" as="geometry" />
        </mxCell>
        <mxCell id="CsUE58t2KNsDiMUx0Mvf-17" style="edgeStyle=orthogonalEdgeStyle;rounded=0;orthogonalLoop=1;jettySize=auto;html=1;entryX=0.995;entryY=0.122;entryDx=0;entryDy=0;entryPerimeter=0;" parent="CsUE58t2KNsDiMUx0Mvf-5" source="CsUE58t2KNsDiMUx0Mvf-10" target="CsUE58t2KNsDiMUx0Mvf-10" edge="1">
          <mxGeometry relative="1" as="geometry" />
        </mxCell>
        <mxCell id="CsUE58t2KNsDiMUx0Mvf-18" value="&lt;div&gt;AttributeDataType&lt;/div&gt;&lt;div&gt;enum&lt;/div&gt;" style="swimlane;fontStyle=0;childLayout=stackLayout;horizontal=1;startSize=26;fillColor=none;horizontalStack=0;resizeParent=1;resizeParentMax=0;resizeLast=0;collapsible=1;marginBottom=0;whiteSpace=wrap;html=1;" parent="CsUE58t2KNsDiMUx0Mvf-5" vertex="1">
          <mxGeometry y="30" width="140" height="156" as="geometry">
            <mxRectangle x="50" y="350" width="100" height="30" as="alternateBounds" />
          </mxGeometry>
        </mxCell>
        <mxCell id="CsUE58t2KNsDiMUx0Mvf-25" value="STRING" style="text;strokeColor=none;fillColor=none;align=left;verticalAlign=top;spacingLeft=4;spacingRight=4;overflow=hidden;rotatable=0;points=[[0,0.5],[1,0.5]];portConstraint=eastwest;whiteSpace=wrap;html=1;" parent="CsUE58t2KNsDiMUx0Mvf-18" vertex="1">
          <mxGeometry y="26" width="140" height="26" as="geometry" />
        </mxCell>
        <mxCell id="CsUE58t2KNsDiMUx0Mvf-24" value="INTEGER" style="text;strokeColor=none;fillColor=none;align=left;verticalAlign=top;spacingLeft=4;spacingRight=4;overflow=hidden;rotatable=0;points=[[0,0.5],[1,0.5]];portConstraint=eastwest;whiteSpace=wrap;html=1;" parent="CsUE58t2KNsDiMUx0Mvf-18" vertex="1">
          <mxGeometry y="52" width="140" height="26" as="geometry" />
        </mxCell>
        <mxCell id="CsUE58t2KNsDiMUx0Mvf-23" value="DOUBLE" style="text;strokeColor=none;fillColor=none;align=left;verticalAlign=top;spacingLeft=4;spacingRight=4;overflow=hidden;rotatable=0;points=[[0,0.5],[1,0.5]];portConstraint=eastwest;whiteSpace=wrap;html=1;" parent="CsUE58t2KNsDiMUx0Mvf-18" vertex="1">
          <mxGeometry y="78" width="140" height="26" as="geometry" />
        </mxCell>
        <mxCell id="CsUE58t2KNsDiMUx0Mvf-22" value="BOOLEAN" style="text;strokeColor=none;fillColor=none;align=left;verticalAlign=top;spacingLeft=4;spacingRight=4;overflow=hidden;rotatable=0;points=[[0,0.5],[1,0.5]];portConstraint=eastwest;whiteSpace=wrap;html=1;" parent="CsUE58t2KNsDiMUx0Mvf-18" vertex="1">
          <mxGeometry y="104" width="140" height="26" as="geometry" />
        </mxCell>
        <mxCell id="CsUE58t2KNsDiMUx0Mvf-19" value="&lt;div&gt;DATE&lt;/div&gt;" style="text;strokeColor=none;fillColor=none;align=left;verticalAlign=top;spacingLeft=4;spacingRight=4;overflow=hidden;rotatable=0;points=[[0,0.5],[1,0.5]];portConstraint=eastwest;whiteSpace=wrap;html=1;" parent="CsUE58t2KNsDiMUx0Mvf-18" vertex="1">
          <mxGeometry y="130" width="140" height="26" as="geometry" />
        </mxCell>
        <mxCell id="CsUE58t2KNsDiMUx0Mvf-26" value="&lt;div&gt;Brand&lt;/div&gt;" style="swimlane;fontStyle=0;childLayout=stackLayout;horizontal=1;startSize=26;fillColor=none;horizontalStack=0;resizeParent=1;resizeParentMax=0;resizeLast=0;collapsible=1;marginBottom=0;whiteSpace=wrap;html=1;" parent="CsUE58t2KNsDiMUx0Mvf-5" vertex="1">
          <mxGeometry x="400" y="180" width="160" height="130" as="geometry">
            <mxRectangle x="50" y="140" width="100" height="30" as="alternateBounds" />
          </mxGeometry>
        </mxCell>
        <mxCell id="CsUE58t2KNsDiMUx0Mvf-27" value="- id: Long" style="text;strokeColor=none;fillColor=none;align=left;verticalAlign=top;spacingLeft=4;spacingRight=4;overflow=hidden;rotatable=0;points=[[0,0.5],[1,0.5]];portConstraint=eastwest;whiteSpace=wrap;html=1;" parent="CsUE58t2KNsDiMUx0Mvf-26" vertex="1">
          <mxGeometry y="26" width="160" height="26" as="geometry" />
        </mxCell>
        <mxCell id="CsUE58t2KNsDiMUx0Mvf-28" value="&lt;div&gt;- name: String&lt;/div&gt;" style="text;strokeColor=none;fillColor=none;align=left;verticalAlign=top;spacingLeft=4;spacingRight=4;overflow=hidden;rotatable=0;points=[[0,0.5],[1,0.5]];portConstraint=eastwest;whiteSpace=wrap;html=1;" parent="CsUE58t2KNsDiMUx0Mvf-26" vertex="1">
          <mxGeometry y="52" width="160" height="26" as="geometry" />
        </mxCell>
        <mxCell id="CsUE58t2KNsDiMUx0Mvf-29" value="&lt;div&gt;- description: String&lt;/div&gt;" style="text;strokeColor=none;fillColor=none;align=left;verticalAlign=top;spacingLeft=4;spacingRight=4;overflow=hidden;rotatable=0;points=[[0,0.5],[1,0.5]];portConstraint=eastwest;whiteSpace=wrap;html=1;" parent="CsUE58t2KNsDiMUx0Mvf-26" vertex="1">
          <mxGeometry y="78" width="160" height="26" as="geometry" />
        </mxCell>
        <mxCell id="CsUE58t2KNsDiMUx0Mvf-30" value="- url: String" style="text;strokeColor=none;fillColor=none;align=left;verticalAlign=top;spacingLeft=4;spacingRight=4;overflow=hidden;rotatable=0;points=[[0,0.5],[1,0.5]];portConstraint=eastwest;whiteSpace=wrap;html=1;" parent="CsUE58t2KNsDiMUx0Mvf-26" vertex="1">
          <mxGeometry y="104" width="160" height="26" as="geometry" />
        </mxCell>
        <mxCell id="CsUE58t2KNsDiMUx0Mvf-32" value="ColorOption" style="swimlane;fontStyle=0;childLayout=stackLayout;horizontal=1;startSize=26;fillColor=none;horizontalStack=0;resizeParent=1;resizeParentMax=0;resizeLast=0;collapsible=1;marginBottom=0;whiteSpace=wrap;html=1;" parent="CsUE58t2KNsDiMUx0Mvf-5" vertex="1">
          <mxGeometry x="230" y="440" width="140" height="104" as="geometry">
            <mxRectangle x="210" y="440" width="100" height="30" as="alternateBounds" />
          </mxGeometry>
        </mxCell>
        <mxCell id="CsUE58t2KNsDiMUx0Mvf-33" value="- id: Long" style="text;strokeColor=none;fillColor=none;align=left;verticalAlign=top;spacingLeft=4;spacingRight=4;overflow=hidden;rotatable=0;points=[[0,0.5],[1,0.5]];portConstraint=eastwest;whiteSpace=wrap;html=1;" parent="CsUE58t2KNsDiMUx0Mvf-32" vertex="1">
          <mxGeometry y="26" width="140" height="26" as="geometry" />
        </mxCell>
        <mxCell id="CsUE58t2KNsDiMUx0Mvf-34" value="- name: String" style="text;strokeColor=none;fillColor=none;align=left;verticalAlign=top;spacingLeft=4;spacingRight=4;overflow=hidden;rotatable=0;points=[[0,0.5],[1,0.5]];portConstraint=eastwest;whiteSpace=wrap;html=1;" parent="CsUE58t2KNsDiMUx0Mvf-32" vertex="1">
          <mxGeometry y="52" width="140" height="26" as="geometry" />
        </mxCell>
        <mxCell id="CsUE58t2KNsDiMUx0Mvf-35" value="&lt;div&gt;- hexCode: String&lt;/div&gt;&lt;div&gt;&lt;br&gt;&lt;/div&gt;" style="text;strokeColor=none;fillColor=none;align=left;verticalAlign=top;spacingLeft=4;spacingRight=4;overflow=hidden;rotatable=0;points=[[0,0.5],[1,0.5]];portConstraint=eastwest;whiteSpace=wrap;html=1;" parent="CsUE58t2KNsDiMUx0Mvf-32" vertex="1">
          <mxGeometry y="78" width="140" height="26" as="geometry" />
        </mxCell>
        <mxCell id="CsUE58t2KNsDiMUx0Mvf-36" value="&lt;div&gt;Product&lt;/div&gt;" style="swimlane;fontStyle=0;childLayout=stackLayout;horizontal=1;startSize=26;fillColor=none;horizontalStack=0;resizeParent=1;resizeParentMax=0;resizeLast=0;collapsible=1;marginBottom=0;whiteSpace=wrap;html=1;" parent="CsUE58t2KNsDiMUx0Mvf-5" vertex="1">
          <mxGeometry x="420" y="350" width="260" height="234" as="geometry">
            <mxRectangle x="50" y="140" width="100" height="30" as="alternateBounds" />
          </mxGeometry>
        </mxCell>
        <mxCell id="CsUE58t2KNsDiMUx0Mvf-37" value="- id: Long" style="text;strokeColor=none;fillColor=none;align=left;verticalAlign=top;spacingLeft=4;spacingRight=4;overflow=hidden;rotatable=0;points=[[0,0.5],[1,0.5]];portConstraint=eastwest;whiteSpace=wrap;html=1;" parent="CsUE58t2KNsDiMUx0Mvf-36" vertex="1">
          <mxGeometry y="26" width="260" height="26" as="geometry" />
        </mxCell>
        <mxCell id="CsUE58t2KNsDiMUx0Mvf-38" value="- category: Category" style="text;strokeColor=none;fillColor=none;align=left;verticalAlign=top;spacingLeft=4;spacingRight=4;overflow=hidden;rotatable=0;points=[[0,0.5],[1,0.5]];portConstraint=eastwest;whiteSpace=wrap;html=1;" parent="CsUE58t2KNsDiMUx0Mvf-36" vertex="1">
          <mxGeometry y="52" width="260" height="26" as="geometry" />
        </mxCell>
        <mxCell id="CsUE58t2KNsDiMUx0Mvf-39" value="- name: String" style="text;strokeColor=none;fillColor=none;align=left;verticalAlign=top;spacingLeft=4;spacingRight=4;overflow=hidden;rotatable=0;points=[[0,0.5],[1,0.5]];portConstraint=eastwest;whiteSpace=wrap;html=1;" parent="CsUE58t2KNsDiMUx0Mvf-36" vertex="1">
          <mxGeometry y="78" width="260" height="26" as="geometry" />
        </mxCell>
        <mxCell id="CsUE58t2KNsDiMUx0Mvf-40" value="- description: String" style="text;strokeColor=none;fillColor=none;align=left;verticalAlign=top;spacingLeft=4;spacingRight=4;overflow=hidden;rotatable=0;points=[[0,0.5],[1,0.5]];portConstraint=eastwest;whiteSpace=wrap;html=1;" parent="CsUE58t2KNsDiMUx0Mvf-36" vertex="1">
          <mxGeometry y="104" width="260" height="26" as="geometry" />
        </mxCell>
        <mxCell id="CsUE58t2KNsDiMUx0Mvf-41" value="- brand: Brand" style="text;strokeColor=none;fillColor=none;align=left;verticalAlign=top;spacingLeft=4;spacingRight=4;overflow=hidden;rotatable=0;points=[[0,0.5],[1,0.5]];portConstraint=eastwest;whiteSpace=wrap;html=1;" parent="CsUE58t2KNsDiMUx0Mvf-36" vertex="1">
          <mxGeometry y="130" width="260" height="26" as="geometry" />
        </mxCell>
        <mxCell id="CsUE58t2KNsDiMUx0Mvf-42" value="- productType: ProductType" style="text;strokeColor=none;fillColor=none;align=left;verticalAlign=top;spacingLeft=4;spacingRight=4;overflow=hidden;rotatable=0;points=[[0,0.5],[1,0.5]];portConstraint=eastwest;whiteSpace=wrap;html=1;" parent="CsUE58t2KNsDiMUx0Mvf-36" vertex="1">
          <mxGeometry y="156" width="260" height="26" as="geometry" />
        </mxCell>
        <mxCell id="CsUE58t2KNsDiMUx0Mvf-43" value="- sellerId: Long" style="text;strokeColor=none;fillColor=none;align=left;verticalAlign=top;spacingLeft=4;spacingRight=4;overflow=hidden;rotatable=0;points=[[0,0.5],[1,0.5]];portConstraint=eastwest;whiteSpace=wrap;html=1;" parent="CsUE58t2KNsDiMUx0Mvf-36" vertex="1">
          <mxGeometry y="182" width="260" height="26" as="geometry" />
        </mxCell>
        <mxCell id="CsUE58t2KNsDiMUx0Mvf-44" value="- attributeValues: ProductAttributeValue" style="text;strokeColor=none;fillColor=none;align=left;verticalAlign=top;spacingLeft=4;spacingRight=4;overflow=hidden;rotatable=0;points=[[0,0.5],[1,0.5]];portConstraint=eastwest;whiteSpace=wrap;html=1;" parent="CsUE58t2KNsDiMUx0Mvf-36" vertex="1">
          <mxGeometry y="208" width="260" height="26" as="geometry" />
        </mxCell>
        <mxCell id="CsUE58t2KNsDiMUx0Mvf-93" style="edgeStyle=orthogonalEdgeStyle;rounded=0;orthogonalLoop=1;jettySize=auto;html=1;" parent="CsUE58t2KNsDiMUx0Mvf-5" source="CsUE58t2KNsDiMUx0Mvf-50" target="CsUE58t2KNsDiMUx0Mvf-66" edge="1">
          <mxGeometry relative="1" as="geometry" />
        </mxCell>
        <mxCell id="CsUE58t2KNsDiMUx0Mvf-50" value="&lt;div&gt;ProductAttributeTemplate&lt;/div&gt;" style="swimlane;fontStyle=0;childLayout=stackLayout;horizontal=1;startSize=26;fillColor=none;horizontalStack=0;resizeParent=1;resizeParentMax=0;resizeLast=0;collapsible=1;marginBottom=0;whiteSpace=wrap;html=1;" parent="CsUE58t2KNsDiMUx0Mvf-5" vertex="1">
          <mxGeometry x="740" y="350" width="180" height="156" as="geometry">
            <mxRectangle x="50" y="140" width="100" height="30" as="alternateBounds" />
          </mxGeometry>
        </mxCell>
        <mxCell id="CsUE58t2KNsDiMUx0Mvf-51" value="- id: Long" style="text;strokeColor=none;fillColor=none;align=left;verticalAlign=top;spacingLeft=4;spacingRight=4;overflow=hidden;rotatable=0;points=[[0,0.5],[1,0.5]];portConstraint=eastwest;whiteSpace=wrap;html=1;" parent="CsUE58t2KNsDiMUx0Mvf-50" vertex="1">
          <mxGeometry y="26" width="180" height="26" as="geometry" />
        </mxCell>
        <mxCell id="CsUE58t2KNsDiMUx0Mvf-52" value="&lt;div&gt;- name: String&lt;/div&gt;" style="text;strokeColor=none;fillColor=none;align=left;verticalAlign=top;spacingLeft=4;spacingRight=4;overflow=hidden;rotatable=0;points=[[0,0.5],[1,0.5]];portConstraint=eastwest;whiteSpace=wrap;html=1;" parent="CsUE58t2KNsDiMUx0Mvf-50" vertex="1">
          <mxGeometry y="52" width="180" height="26" as="geometry" />
        </mxCell>
        <mxCell id="CsUE58t2KNsDiMUx0Mvf-53" value="- required: Boolean" style="text;strokeColor=none;fillColor=none;align=left;verticalAlign=top;spacingLeft=4;spacingRight=4;overflow=hidden;rotatable=0;points=[[0,0.5],[1,0.5]];portConstraint=eastwest;whiteSpace=wrap;html=1;" parent="CsUE58t2KNsDiMUx0Mvf-50" vertex="1">
          <mxGeometry y="78" width="180" height="26" as="geometry" />
        </mxCell>
        <mxCell id="CsUE58t2KNsDiMUx0Mvf-54" value="- type: AttributeDataType" style="text;strokeColor=none;fillColor=none;align=left;verticalAlign=top;spacingLeft=4;spacingRight=4;overflow=hidden;rotatable=0;points=[[0,0.5],[1,0.5]];portConstraint=eastwest;whiteSpace=wrap;html=1;" parent="CsUE58t2KNsDiMUx0Mvf-50" vertex="1">
          <mxGeometry y="104" width="180" height="26" as="geometry" />
        </mxCell>
        <mxCell id="CsUE58t2KNsDiMUx0Mvf-55" value="- productType: ProductType" style="text;strokeColor=none;fillColor=none;align=left;verticalAlign=top;spacingLeft=4;spacingRight=4;overflow=hidden;rotatable=0;points=[[0,0.5],[1,0.5]];portConstraint=eastwest;whiteSpace=wrap;html=1;" parent="CsUE58t2KNsDiMUx0Mvf-50" vertex="1">
          <mxGeometry y="130" width="180" height="26" as="geometry" />
        </mxCell>
        <mxCell id="CsUE58t2KNsDiMUx0Mvf-94" style="edgeStyle=orthogonalEdgeStyle;rounded=0;orthogonalLoop=1;jettySize=auto;html=1;" parent="CsUE58t2KNsDiMUx0Mvf-5" source="CsUE58t2KNsDiMUx0Mvf-56" target="CsUE58t2KNsDiMUx0Mvf-50" edge="1">
          <mxGeometry relative="1" as="geometry" />
        </mxCell>
        <mxCell id="CsUE58t2KNsDiMUx0Mvf-56" value="ProductAttributeValue" style="swimlane;fontStyle=0;childLayout=stackLayout;horizontal=1;startSize=26;fillColor=none;horizontalStack=0;resizeParent=1;resizeParentMax=0;resizeLast=0;collapsible=1;marginBottom=0;whiteSpace=wrap;html=1;" parent="CsUE58t2KNsDiMUx0Mvf-5" vertex="1">
          <mxGeometry x="740" y="570" width="220" height="130" as="geometry">
            <mxRectangle x="50" y="140" width="100" height="30" as="alternateBounds" />
          </mxGeometry>
        </mxCell>
        <mxCell id="CsUE58t2KNsDiMUx0Mvf-57" value="- id: Long" style="text;strokeColor=none;fillColor=none;align=left;verticalAlign=top;spacingLeft=4;spacingRight=4;overflow=hidden;rotatable=0;points=[[0,0.5],[1,0.5]];portConstraint=eastwest;whiteSpace=wrap;html=1;" parent="CsUE58t2KNsDiMUx0Mvf-56" vertex="1">
          <mxGeometry y="26" width="220" height="26" as="geometry" />
        </mxCell>
        <mxCell id="CsUE58t2KNsDiMUx0Mvf-58" value="&lt;div&gt;- value: String&lt;/div&gt;" style="text;strokeColor=none;fillColor=none;align=left;verticalAlign=top;spacingLeft=4;spacingRight=4;overflow=hidden;rotatable=0;points=[[0,0.5],[1,0.5]];portConstraint=eastwest;whiteSpace=wrap;html=1;" parent="CsUE58t2KNsDiMUx0Mvf-56" vertex="1">
          <mxGeometry y="52" width="220" height="26" as="geometry" />
        </mxCell>
        <mxCell id="CsUE58t2KNsDiMUx0Mvf-59" value="&lt;div&gt;- product: Product&lt;/div&gt;" style="text;strokeColor=none;fillColor=none;align=left;verticalAlign=top;spacingLeft=4;spacingRight=4;overflow=hidden;rotatable=0;points=[[0,0.5],[1,0.5]];portConstraint=eastwest;whiteSpace=wrap;html=1;" parent="CsUE58t2KNsDiMUx0Mvf-56" vertex="1">
          <mxGeometry y="78" width="220" height="26" as="geometry" />
        </mxCell>
        <mxCell id="CsUE58t2KNsDiMUx0Mvf-60" value="- template: ProductAttributeTemplate" style="text;strokeColor=none;fillColor=none;align=left;verticalAlign=top;spacingLeft=4;spacingRight=4;overflow=hidden;rotatable=0;points=[[0,0.5],[1,0.5]];portConstraint=eastwest;whiteSpace=wrap;html=1;" parent="CsUE58t2KNsDiMUx0Mvf-56" vertex="1">
          <mxGeometry y="104" width="220" height="26" as="geometry" />
        </mxCell>
        <mxCell id="CsUE58t2KNsDiMUx0Mvf-61" value="ProductImage" style="swimlane;fontStyle=0;childLayout=stackLayout;horizontal=1;startSize=26;fillColor=none;horizontalStack=0;resizeParent=1;resizeParentMax=0;resizeLast=0;collapsible=1;marginBottom=0;whiteSpace=wrap;html=1;" parent="CsUE58t2KNsDiMUx0Mvf-5" vertex="1">
          <mxGeometry x="790" y="780" width="140" height="130" as="geometry">
            <mxRectangle x="210" y="440" width="100" height="30" as="alternateBounds" />
          </mxGeometry>
        </mxCell>
        <mxCell id="CsUE58t2KNsDiMUx0Mvf-62" value="- id: Long" style="text;strokeColor=none;fillColor=none;align=left;verticalAlign=top;spacingLeft=4;spacingRight=4;overflow=hidden;rotatable=0;points=[[0,0.5],[1,0.5]];portConstraint=eastwest;whiteSpace=wrap;html=1;" parent="CsUE58t2KNsDiMUx0Mvf-61" vertex="1">
          <mxGeometry y="26" width="140" height="26" as="geometry" />
        </mxCell>
        <mxCell id="CsUE58t2KNsDiMUx0Mvf-63" value="- imageUrl: String" style="text;strokeColor=none;fillColor=none;align=left;verticalAlign=top;spacingLeft=4;spacingRight=4;overflow=hidden;rotatable=0;points=[[0,0.5],[1,0.5]];portConstraint=eastwest;whiteSpace=wrap;html=1;" parent="CsUE58t2KNsDiMUx0Mvf-61" vertex="1">
          <mxGeometry y="52" width="140" height="26" as="geometry" />
        </mxCell>
        <mxCell id="CsUE58t2KNsDiMUx0Mvf-64" value="- position: Integer" style="text;strokeColor=none;fillColor=none;align=left;verticalAlign=top;spacingLeft=4;spacingRight=4;overflow=hidden;rotatable=0;points=[[0,0.5],[1,0.5]];portConstraint=eastwest;whiteSpace=wrap;html=1;" parent="CsUE58t2KNsDiMUx0Mvf-61" vertex="1">
          <mxGeometry y="78" width="140" height="26" as="geometry" />
        </mxCell>
        <mxCell id="CsUE58t2KNsDiMUx0Mvf-65" value="- product: Product" style="text;strokeColor=none;fillColor=none;align=left;verticalAlign=top;spacingLeft=4;spacingRight=4;overflow=hidden;rotatable=0;points=[[0,0.5],[1,0.5]];portConstraint=eastwest;whiteSpace=wrap;html=1;" parent="CsUE58t2KNsDiMUx0Mvf-61" vertex="1">
          <mxGeometry y="104" width="140" height="26" as="geometry" />
        </mxCell>
        <mxCell id="CsUE58t2KNsDiMUx0Mvf-66" value="ProuctType" style="swimlane;fontStyle=0;childLayout=stackLayout;horizontal=1;startSize=26;fillColor=none;horizontalStack=0;resizeParent=1;resizeParentMax=0;resizeLast=0;collapsible=1;marginBottom=0;whiteSpace=wrap;html=1;" parent="CsUE58t2KNsDiMUx0Mvf-5" vertex="1">
          <mxGeometry x="740" y="170" width="160" height="78" as="geometry">
            <mxRectangle x="50" y="140" width="100" height="30" as="alternateBounds" />
          </mxGeometry>
        </mxCell>
        <mxCell id="CsUE58t2KNsDiMUx0Mvf-67" value="- id: Long" style="text;strokeColor=none;fillColor=none;align=left;verticalAlign=top;spacingLeft=4;spacingRight=4;overflow=hidden;rotatable=0;points=[[0,0.5],[1,0.5]];portConstraint=eastwest;whiteSpace=wrap;html=1;" parent="CsUE58t2KNsDiMUx0Mvf-66" vertex="1">
          <mxGeometry y="26" width="160" height="26" as="geometry" />
        </mxCell>
        <mxCell id="CsUE58t2KNsDiMUx0Mvf-68" value="&lt;div&gt;- name: String&lt;/div&gt;" style="text;strokeColor=none;fillColor=none;align=left;verticalAlign=top;spacingLeft=4;spacingRight=4;overflow=hidden;rotatable=0;points=[[0,0.5],[1,0.5]];portConstraint=eastwest;whiteSpace=wrap;html=1;" parent="CsUE58t2KNsDiMUx0Mvf-66" vertex="1">
          <mxGeometry y="52" width="160" height="26" as="geometry" />
        </mxCell>
        <mxCell id="CsUE58t2KNsDiMUx0Mvf-71" value="ProductVariant" style="swimlane;fontStyle=0;childLayout=stackLayout;horizontal=1;startSize=26;fillColor=none;horizontalStack=0;resizeParent=1;resizeParentMax=0;resizeLast=0;collapsible=1;marginBottom=0;whiteSpace=wrap;html=1;" parent="CsUE58t2KNsDiMUx0Mvf-5" vertex="1">
          <mxGeometry x="330" y="630" width="140" height="270" as="geometry">
            <mxRectangle x="210" y="440" width="100" height="30" as="alternateBounds" />
          </mxGeometry>
        </mxCell>
        <mxCell id="CsUE58t2KNsDiMUx0Mvf-72" value="- id: Long" style="text;strokeColor=none;fillColor=none;align=left;verticalAlign=top;spacingLeft=4;spacingRight=4;overflow=hidden;rotatable=0;points=[[0,0.5],[1,0.5]];portConstraint=eastwest;whiteSpace=wrap;html=1;" parent="CsUE58t2KNsDiMUx0Mvf-71" vertex="1">
          <mxGeometry y="26" width="140" height="26" as="geometry" />
        </mxCell>
        <mxCell id="CsUE58t2KNsDiMUx0Mvf-73" value="- skuCode" style="text;strokeColor=none;fillColor=none;align=left;verticalAlign=top;spacingLeft=4;spacingRight=4;overflow=hidden;rotatable=0;points=[[0,0.5],[1,0.5]];portConstraint=eastwest;whiteSpace=wrap;html=1;" parent="CsUE58t2KNsDiMUx0Mvf-71" vertex="1">
          <mxGeometry y="52" width="140" height="26" as="geometry" />
        </mxCell>
        <mxCell id="CsUE58t2KNsDiMUx0Mvf-74" value="- price: BigDecimal" style="text;strokeColor=none;fillColor=none;align=left;verticalAlign=top;spacingLeft=4;spacingRight=4;overflow=hidden;rotatable=0;points=[[0,0.5],[1,0.5]];portConstraint=eastwest;whiteSpace=wrap;html=1;" parent="CsUE58t2KNsDiMUx0Mvf-71" vertex="1">
          <mxGeometry y="78" width="140" height="32" as="geometry" />
        </mxCell>
        <mxCell id="CsUE58t2KNsDiMUx0Mvf-76" value="- discount: BigDecimal" style="text;strokeColor=none;fillColor=none;align=left;verticalAlign=top;spacingLeft=4;spacingRight=4;overflow=hidden;rotatable=0;points=[[0,0.5],[1,0.5]];portConstraint=eastwest;whiteSpace=wrap;html=1;" parent="CsUE58t2KNsDiMUx0Mvf-71" vertex="1">
          <mxGeometry y="110" width="140" height="32" as="geometry" />
        </mxCell>
        <mxCell id="CsUE58t2KNsDiMUx0Mvf-80" value="- sellerId: Long" style="text;strokeColor=none;fillColor=none;align=left;verticalAlign=top;spacingLeft=4;spacingRight=4;overflow=hidden;rotatable=0;points=[[0,0.5],[1,0.5]];portConstraint=eastwest;whiteSpace=wrap;html=1;" parent="CsUE58t2KNsDiMUx0Mvf-71" vertex="1">
          <mxGeometry y="142" width="140" height="32" as="geometry" />
        </mxCell>
        <mxCell id="CsUE58t2KNsDiMUx0Mvf-79" value="- product: Product" style="text;strokeColor=none;fillColor=none;align=left;verticalAlign=top;spacingLeft=4;spacingRight=4;overflow=hidden;rotatable=0;points=[[0,0.5],[1,0.5]];portConstraint=eastwest;whiteSpace=wrap;html=1;" parent="CsUE58t2KNsDiMUx0Mvf-71" vertex="1">
          <mxGeometry y="174" width="140" height="32" as="geometry" />
        </mxCell>
        <mxCell id="CsUE58t2KNsDiMUx0Mvf-78" value="- color: ColorOption" style="text;strokeColor=none;fillColor=none;align=left;verticalAlign=top;spacingLeft=4;spacingRight=4;overflow=hidden;rotatable=0;points=[[0,0.5],[1,0.5]];portConstraint=eastwest;whiteSpace=wrap;html=1;" parent="CsUE58t2KNsDiMUx0Mvf-71" vertex="1">
          <mxGeometry y="206" width="140" height="32" as="geometry" />
        </mxCell>
        <mxCell id="CsUE58t2KNsDiMUx0Mvf-77" value="- size: SizeOption" style="text;strokeColor=none;fillColor=none;align=left;verticalAlign=top;spacingLeft=4;spacingRight=4;overflow=hidden;rotatable=0;points=[[0,0.5],[1,0.5]];portConstraint=eastwest;whiteSpace=wrap;html=1;" parent="CsUE58t2KNsDiMUx0Mvf-71" vertex="1">
          <mxGeometry y="238" width="140" height="32" as="geometry" />
        </mxCell>
        <mxCell id="CsUE58t2KNsDiMUx0Mvf-81" value="ProductVariantImage" style="swimlane;fontStyle=0;childLayout=stackLayout;horizontal=1;startSize=26;fillColor=none;horizontalStack=0;resizeParent=1;resizeParentMax=0;resizeLast=0;collapsible=1;marginBottom=0;whiteSpace=wrap;html=1;" parent="CsUE58t2KNsDiMUx0Mvf-5" vertex="1">
          <mxGeometry y="800" width="190" height="130" as="geometry">
            <mxRectangle x="210" y="440" width="100" height="30" as="alternateBounds" />
          </mxGeometry>
        </mxCell>
        <mxCell id="CsUE58t2KNsDiMUx0Mvf-82" value="- id: Long" style="text;strokeColor=none;fillColor=none;align=left;verticalAlign=top;spacingLeft=4;spacingRight=4;overflow=hidden;rotatable=0;points=[[0,0.5],[1,0.5]];portConstraint=eastwest;whiteSpace=wrap;html=1;" parent="CsUE58t2KNsDiMUx0Mvf-81" vertex="1">
          <mxGeometry y="26" width="190" height="26" as="geometry" />
        </mxCell>
        <mxCell id="CsUE58t2KNsDiMUx0Mvf-83" value="- imageUrl: String" style="text;strokeColor=none;fillColor=none;align=left;verticalAlign=top;spacingLeft=4;spacingRight=4;overflow=hidden;rotatable=0;points=[[0,0.5],[1,0.5]];portConstraint=eastwest;whiteSpace=wrap;html=1;" parent="CsUE58t2KNsDiMUx0Mvf-81" vertex="1">
          <mxGeometry y="52" width="190" height="26" as="geometry" />
        </mxCell>
        <mxCell id="CsUE58t2KNsDiMUx0Mvf-84" value="- position: Integer" style="text;strokeColor=none;fillColor=none;align=left;verticalAlign=top;spacingLeft=4;spacingRight=4;overflow=hidden;rotatable=0;points=[[0,0.5],[1,0.5]];portConstraint=eastwest;whiteSpace=wrap;html=1;" parent="CsUE58t2KNsDiMUx0Mvf-81" vertex="1">
          <mxGeometry y="78" width="190" height="26" as="geometry" />
        </mxCell>
        <mxCell id="CsUE58t2KNsDiMUx0Mvf-85" value="- productVariant: ProductVariant" style="text;strokeColor=none;fillColor=none;align=left;verticalAlign=top;spacingLeft=4;spacingRight=4;overflow=hidden;rotatable=0;points=[[0,0.5],[1,0.5]];portConstraint=eastwest;whiteSpace=wrap;html=1;" parent="CsUE58t2KNsDiMUx0Mvf-81" vertex="1">
          <mxGeometry y="104" width="190" height="26" as="geometry" />
        </mxCell>
        <mxCell id="CsUE58t2KNsDiMUx0Mvf-88" style="edgeStyle=orthogonalEdgeStyle;rounded=0;orthogonalLoop=1;jettySize=auto;html=1;entryX=0.561;entryY=1.018;entryDx=0;entryDy=0;entryPerimeter=0;" parent="CsUE58t2KNsDiMUx0Mvf-5" source="CsUE58t2KNsDiMUx0Mvf-38" target="CsUE58t2KNsDiMUx0Mvf-16" edge="1">
          <mxGeometry relative="1" as="geometry" />
        </mxCell>
        <mxCell id="CsUE58t2KNsDiMUx0Mvf-89" style="edgeStyle=orthogonalEdgeStyle;rounded=0;orthogonalLoop=1;jettySize=auto;html=1;entryX=0;entryY=0.5;entryDx=0;entryDy=0;" parent="CsUE58t2KNsDiMUx0Mvf-5" source="CsUE58t2KNsDiMUx0Mvf-41" target="CsUE58t2KNsDiMUx0Mvf-30" edge="1">
          <mxGeometry relative="1" as="geometry" />
        </mxCell>
        <mxCell id="CsUE58t2KNsDiMUx0Mvf-90" style="edgeStyle=orthogonalEdgeStyle;rounded=0;orthogonalLoop=1;jettySize=auto;html=1;entryX=0;entryY=0.5;entryDx=0;entryDy=0;" parent="CsUE58t2KNsDiMUx0Mvf-5" source="CsUE58t2KNsDiMUx0Mvf-42" target="CsUE58t2KNsDiMUx0Mvf-67" edge="1">
          <mxGeometry relative="1" as="geometry" />
        </mxCell>
        <mxCell id="CsUE58t2KNsDiMUx0Mvf-92" style="edgeStyle=orthogonalEdgeStyle;rounded=0;orthogonalLoop=1;jettySize=auto;html=1;" parent="CsUE58t2KNsDiMUx0Mvf-5" source="CsUE58t2KNsDiMUx0Mvf-59" target="CsUE58t2KNsDiMUx0Mvf-44" edge="1">
          <mxGeometry relative="1" as="geometry" />
        </mxCell>
        <mxCell id="CsUE58t2KNsDiMUx0Mvf-95" style="edgeStyle=orthogonalEdgeStyle;rounded=0;orthogonalLoop=1;jettySize=auto;html=1;entryX=0.875;entryY=1;entryDx=0;entryDy=0;entryPerimeter=0;" parent="CsUE58t2KNsDiMUx0Mvf-5" source="CsUE58t2KNsDiMUx0Mvf-79" target="CsUE58t2KNsDiMUx0Mvf-44" edge="1">
          <mxGeometry relative="1" as="geometry" />
        </mxCell>
        <mxCell id="CsUE58t2KNsDiMUx0Mvf-96" style="edgeStyle=orthogonalEdgeStyle;rounded=0;orthogonalLoop=1;jettySize=auto;html=1;" parent="CsUE58t2KNsDiMUx0Mvf-5" source="CsUE58t2KNsDiMUx0Mvf-78" target="CsUE58t2KNsDiMUx0Mvf-32" edge="1">
          <mxGeometry relative="1" as="geometry" />
        </mxCell>
        <mxCell id="CsUE58t2KNsDiMUx0Mvf-97" style="edgeStyle=orthogonalEdgeStyle;rounded=0;orthogonalLoop=1;jettySize=auto;html=1;entryX=0.964;entryY=1.032;entryDx=0;entryDy=0;entryPerimeter=0;" parent="CsUE58t2KNsDiMUx0Mvf-5" source="CsUE58t2KNsDiMUx0Mvf-77" target="CsUE58t2KNsDiMUx0Mvf-9" edge="1">
          <mxGeometry relative="1" as="geometry" />
        </mxCell>
        <mxCell id="CsUE58t2KNsDiMUx0Mvf-98" style="edgeStyle=orthogonalEdgeStyle;rounded=0;orthogonalLoop=1;jettySize=auto;html=1;" parent="CsUE58t2KNsDiMUx0Mvf-5" source="CsUE58t2KNsDiMUx0Mvf-85" target="CsUE58t2KNsDiMUx0Mvf-71" edge="1">
          <mxGeometry relative="1" as="geometry" />
        </mxCell>
        <mxCell id="CsUE58t2KNsDiMUx0Mvf-99" style="edgeStyle=orthogonalEdgeStyle;rounded=0;orthogonalLoop=1;jettySize=auto;html=1;" parent="CsUE58t2KNsDiMUx0Mvf-5" source="CsUE58t2KNsDiMUx0Mvf-65" target="CsUE58t2KNsDiMUx0Mvf-36" edge="1">
          <mxGeometry relative="1" as="geometry" />
        </mxCell>
        <mxCell id="CsUE58t2KNsDiMUx0Mvf-101" value="Repository" style="swimlane;startSize=23;" parent="WIyWlLk6GJQsqaUBKTNV-1" vertex="1">
          <mxGeometry x="450" y="-1090" width="1200" height="1110" as="geometry" />
        </mxCell>
        <mxCell id="CsUE58t2KNsDiMUx0Mvf-102" value="&lt;div&gt;SizeOption&lt;/div&gt;" style="swimlane;fontStyle=0;childLayout=stackLayout;horizontal=1;startSize=26;fillColor=none;horizontalStack=0;resizeParent=1;resizeParentMax=0;resizeLast=0;collapsible=1;marginBottom=0;whiteSpace=wrap;html=1;" parent="CsUE58t2KNsDiMUx0Mvf-101" vertex="1">
          <mxGeometry x="280" y="394" width="140" height="52" as="geometry">
            <mxRectangle x="70" y="440" width="100" height="30" as="alternateBounds" />
          </mxGeometry>
        </mxCell>
        <mxCell id="sPSupXaPWO5JqcNPg5AE-3" style="edgeStyle=orthogonalEdgeStyle;rounded=0;orthogonalLoop=1;jettySize=auto;html=1;" edge="1" parent="CsUE58t2KNsDiMUx0Mvf-101" source="CsUE58t2KNsDiMUx0Mvf-106" target="sPSupXaPWO5JqcNPg5AE-2">
          <mxGeometry relative="1" as="geometry">
            <Array as="points">
              <mxPoint x="50" y="128" />
            </Array>
          </mxGeometry>
        </mxCell>
        <mxCell id="CsUE58t2KNsDiMUx0Mvf-106" value="&lt;div&gt;CategoryRepository&lt;/div&gt;" style="swimlane;fontStyle=0;childLayout=stackLayout;horizontal=1;startSize=26;fillColor=none;horizontalStack=0;resizeParent=1;resizeParentMax=0;resizeLast=0;collapsible=1;marginBottom=0;whiteSpace=wrap;html=1;" parent="CsUE58t2KNsDiMUx0Mvf-101" vertex="1">
          <mxGeometry x="280" y="102" width="150" height="52" as="geometry">
            <mxRectangle x="50" y="140" width="100" height="30" as="alternateBounds" />
          </mxGeometry>
        </mxCell>
        <mxCell id="sPSupXaPWO5JqcNPg5AE-4" style="edgeStyle=orthogonalEdgeStyle;rounded=0;orthogonalLoop=1;jettySize=auto;html=1;entryX=0.302;entryY=-0.023;entryDx=0;entryDy=0;entryPerimeter=0;" edge="1" parent="CsUE58t2KNsDiMUx0Mvf-101" source="CsUE58t2KNsDiMUx0Mvf-119" target="sPSupXaPWO5JqcNPg5AE-2">
          <mxGeometry relative="1" as="geometry">
            <Array as="points">
              <mxPoint x="70" y="208" />
              <mxPoint x="70" y="519" />
            </Array>
          </mxGeometry>
        </mxCell>
        <mxCell id="CsUE58t2KNsDiMUx0Mvf-119" value="&lt;div&gt;Brand&lt;/div&gt;" style="swimlane;fontStyle=0;childLayout=stackLayout;horizontal=1;startSize=26;fillColor=none;horizontalStack=0;resizeParent=1;resizeParentMax=0;resizeLast=0;collapsible=1;marginBottom=0;whiteSpace=wrap;html=1;" parent="CsUE58t2KNsDiMUx0Mvf-101" vertex="1">
          <mxGeometry x="280" y="182" width="160" height="52" as="geometry">
            <mxRectangle x="50" y="140" width="100" height="30" as="alternateBounds" />
          </mxGeometry>
        </mxCell>
        <mxCell id="sPSupXaPWO5JqcNPg5AE-7" style="edgeStyle=orthogonalEdgeStyle;rounded=0;orthogonalLoop=1;jettySize=auto;html=1;entryX=0.75;entryY=0;entryDx=0;entryDy=0;" edge="1" parent="CsUE58t2KNsDiMUx0Mvf-101" source="CsUE58t2KNsDiMUx0Mvf-124" target="sPSupXaPWO5JqcNPg5AE-2">
          <mxGeometry relative="1" as="geometry" />
        </mxCell>
        <mxCell id="CsUE58t2KNsDiMUx0Mvf-124" value="ColorOption" style="swimlane;fontStyle=0;childLayout=stackLayout;horizontal=1;startSize=26;fillColor=none;horizontalStack=0;resizeParent=1;resizeParentMax=0;resizeLast=0;collapsible=1;marginBottom=0;whiteSpace=wrap;html=1;" parent="CsUE58t2KNsDiMUx0Mvf-101" vertex="1">
          <mxGeometry x="280" y="322" width="140" height="52" as="geometry">
            <mxRectangle x="210" y="440" width="100" height="30" as="alternateBounds" />
          </mxGeometry>
        </mxCell>
        <mxCell id="CsUE58t2KNsDiMUx0Mvf-128" value="&lt;div&gt;Product&lt;/div&gt;" style="swimlane;fontStyle=0;childLayout=stackLayout;horizontal=1;startSize=26;fillColor=none;horizontalStack=0;resizeParent=1;resizeParentMax=0;resizeLast=0;collapsible=1;marginBottom=0;whiteSpace=wrap;html=1;" parent="CsUE58t2KNsDiMUx0Mvf-101" vertex="1">
          <mxGeometry x="280" y="252" width="260" height="52" as="geometry">
            <mxRectangle x="50" y="140" width="100" height="30" as="alternateBounds" />
          </mxGeometry>
        </mxCell>
        <mxCell id="sPSupXaPWO5JqcNPg5AE-13" style="edgeStyle=orthogonalEdgeStyle;rounded=0;orthogonalLoop=1;jettySize=auto;html=1;" edge="1" parent="CsUE58t2KNsDiMUx0Mvf-101" source="CsUE58t2KNsDiMUx0Mvf-138">
          <mxGeometry relative="1" as="geometry">
            <mxPoint x="110" y="579.9999999999998" as="targetPoint" />
          </mxGeometry>
        </mxCell>
        <mxCell id="CsUE58t2KNsDiMUx0Mvf-138" value="&lt;div&gt;ProductAttributeTemplate&lt;/div&gt;" style="swimlane;fontStyle=0;childLayout=stackLayout;horizontal=1;startSize=26;fillColor=none;horizontalStack=0;resizeParent=1;resizeParentMax=0;resizeLast=0;collapsible=1;marginBottom=0;whiteSpace=wrap;html=1;" parent="CsUE58t2KNsDiMUx0Mvf-101" vertex="1">
          <mxGeometry x="280" y="872" width="180" height="52" as="geometry">
            <mxRectangle x="50" y="140" width="100" height="30" as="alternateBounds" />
          </mxGeometry>
        </mxCell>
        <mxCell id="sPSupXaPWO5JqcNPg5AE-11" style="edgeStyle=orthogonalEdgeStyle;rounded=0;orthogonalLoop=1;jettySize=auto;html=1;" edge="1" parent="CsUE58t2KNsDiMUx0Mvf-101" source="CsUE58t2KNsDiMUx0Mvf-145">
          <mxGeometry relative="1" as="geometry">
            <mxPoint x="150" y="580" as="targetPoint" />
          </mxGeometry>
        </mxCell>
        <mxCell id="CsUE58t2KNsDiMUx0Mvf-145" value="ProductAttributeValue" style="swimlane;fontStyle=0;childLayout=stackLayout;horizontal=1;startSize=26;fillColor=none;horizontalStack=0;resizeParent=1;resizeParentMax=0;resizeLast=0;collapsible=1;marginBottom=0;whiteSpace=wrap;html=1;" parent="CsUE58t2KNsDiMUx0Mvf-101" vertex="1">
          <mxGeometry x="280" y="702" width="220" height="52" as="geometry">
            <mxRectangle x="50" y="140" width="100" height="30" as="alternateBounds" />
          </mxGeometry>
        </mxCell>
        <mxCell id="sPSupXaPWO5JqcNPg5AE-12" style="edgeStyle=orthogonalEdgeStyle;rounded=0;orthogonalLoop=1;jettySize=auto;html=1;entryX=0.75;entryY=1;entryDx=0;entryDy=0;" edge="1" parent="CsUE58t2KNsDiMUx0Mvf-101" source="CsUE58t2KNsDiMUx0Mvf-150" target="sPSupXaPWO5JqcNPg5AE-2">
          <mxGeometry relative="1" as="geometry" />
        </mxCell>
        <mxCell id="CsUE58t2KNsDiMUx0Mvf-150" value="ProductImage" style="swimlane;fontStyle=0;childLayout=stackLayout;horizontal=1;startSize=26;fillColor=none;horizontalStack=0;resizeParent=1;resizeParentMax=0;resizeLast=0;collapsible=1;marginBottom=0;whiteSpace=wrap;html=1;" parent="CsUE58t2KNsDiMUx0Mvf-101" vertex="1">
          <mxGeometry x="280" y="782" width="140" height="52" as="geometry">
            <mxRectangle x="210" y="440" width="100" height="30" as="alternateBounds" />
          </mxGeometry>
        </mxCell>
        <mxCell id="sPSupXaPWO5JqcNPg5AE-14" style="edgeStyle=orthogonalEdgeStyle;rounded=0;orthogonalLoop=1;jettySize=auto;html=1;" edge="1" parent="CsUE58t2KNsDiMUx0Mvf-101" source="CsUE58t2KNsDiMUx0Mvf-155">
          <mxGeometry relative="1" as="geometry">
            <mxPoint x="80" y="579.9999999999998" as="targetPoint" />
          </mxGeometry>
        </mxCell>
        <mxCell id="CsUE58t2KNsDiMUx0Mvf-155" value="ProuctType" style="swimlane;fontStyle=0;childLayout=stackLayout;horizontal=1;startSize=20;fillColor=none;horizontalStack=0;resizeParent=1;resizeParentMax=0;resizeLast=0;collapsible=1;marginBottom=0;whiteSpace=wrap;html=1;" parent="CsUE58t2KNsDiMUx0Mvf-101" vertex="1">
          <mxGeometry x="280" y="962" width="160" height="46" as="geometry">
            <mxRectangle x="50" y="140" width="100" height="30" as="alternateBounds" />
          </mxGeometry>
        </mxCell>
        <mxCell id="sPSupXaPWO5JqcNPg5AE-9" style="edgeStyle=orthogonalEdgeStyle;rounded=0;orthogonalLoop=1;jettySize=auto;html=1;entryX=1;entryY=0.25;entryDx=0;entryDy=0;" edge="1" parent="CsUE58t2KNsDiMUx0Mvf-101" source="CsUE58t2KNsDiMUx0Mvf-158" target="sPSupXaPWO5JqcNPg5AE-2">
          <mxGeometry relative="1" as="geometry" />
        </mxCell>
        <mxCell id="CsUE58t2KNsDiMUx0Mvf-158" value="ProductVariant" style="swimlane;fontStyle=0;childLayout=stackLayout;horizontal=1;startSize=26;fillColor=none;horizontalStack=0;resizeParent=1;resizeParentMax=0;resizeLast=0;collapsible=1;marginBottom=0;whiteSpace=wrap;html=1;" parent="CsUE58t2KNsDiMUx0Mvf-101" vertex="1">
          <mxGeometry x="280" y="472" width="140" height="58" as="geometry">
            <mxRectangle x="210" y="440" width="100" height="30" as="alternateBounds" />
          </mxGeometry>
        </mxCell>
        <mxCell id="sPSupXaPWO5JqcNPg5AE-10" style="edgeStyle=orthogonalEdgeStyle;rounded=0;orthogonalLoop=1;jettySize=auto;html=1;entryX=1;entryY=0.5;entryDx=0;entryDy=0;" edge="1" parent="CsUE58t2KNsDiMUx0Mvf-101" source="CsUE58t2KNsDiMUx0Mvf-167" target="sPSupXaPWO5JqcNPg5AE-2">
          <mxGeometry relative="1" as="geometry" />
        </mxCell>
        <mxCell id="CsUE58t2KNsDiMUx0Mvf-167" value="ProductVariantImage" style="swimlane;fontStyle=0;childLayout=stackLayout;horizontal=1;startSize=26;fillColor=none;horizontalStack=0;resizeParent=1;resizeParentMax=0;resizeLast=0;collapsible=1;marginBottom=0;whiteSpace=wrap;html=1;" parent="CsUE58t2KNsDiMUx0Mvf-101" vertex="1">
          <mxGeometry x="280" y="582" width="190" height="52" as="geometry">
            <mxRectangle x="210" y="440" width="100" height="30" as="alternateBounds" />
          </mxGeometry>
        </mxCell>
        <mxCell id="sPSupXaPWO5JqcNPg5AE-2" value="&lt;div&gt;JPARepository&lt;/div&gt;" style="swimlane;fontStyle=0;childLayout=stackLayout;horizontal=1;startSize=26;fillColor=none;horizontalStack=0;resizeParent=1;resizeParentMax=0;resizeLast=0;collapsible=1;marginBottom=0;whiteSpace=wrap;html=1;" vertex="1" parent="CsUE58t2KNsDiMUx0Mvf-101">
          <mxGeometry x="30" y="520" width="140" height="58" as="geometry">
            <mxRectangle x="210" y="440" width="100" height="30" as="alternateBounds" />
          </mxGeometry>
        </mxCell>
        <mxCell id="sPSupXaPWO5JqcNPg5AE-5" style="edgeStyle=orthogonalEdgeStyle;rounded=0;orthogonalLoop=1;jettySize=auto;html=1;entryX=0.5;entryY=0;entryDx=0;entryDy=0;" edge="1" parent="CsUE58t2KNsDiMUx0Mvf-101" source="CsUE58t2KNsDiMUx0Mvf-128" target="sPSupXaPWO5JqcNPg5AE-2">
          <mxGeometry relative="1" as="geometry">
            <mxPoint x="100" y="517" as="targetPoint" />
            <Array as="points">
              <mxPoint x="100" y="278" />
            </Array>
          </mxGeometry>
        </mxCell>
        <mxCell id="sPSupXaPWO5JqcNPg5AE-8" style="edgeStyle=orthogonalEdgeStyle;rounded=0;orthogonalLoop=1;jettySize=auto;html=1;entryX=0.874;entryY=-0.039;entryDx=0;entryDy=0;entryPerimeter=0;" edge="1" parent="CsUE58t2KNsDiMUx0Mvf-101" source="CsUE58t2KNsDiMUx0Mvf-102" target="sPSupXaPWO5JqcNPg5AE-2">
          <mxGeometry relative="1" as="geometry" />
        </mxCell>
        <mxCell id="sPSupXaPWO5JqcNPg5AE-15" value="DTO" style="swimlane;startSize=23;" vertex="1" parent="WIyWlLk6GJQsqaUBKTNV-1">
          <mxGeometry x="1760" y="-1100" width="1200" height="1110" as="geometry" />
        </mxCell>
        <mxCell id="sPSupXaPWO5JqcNPg5AE-16" value="&lt;div&gt;SizeOption&lt;/div&gt;" style="swimlane;fontStyle=0;childLayout=stackLayout;horizontal=1;startSize=26;fillColor=none;horizontalStack=0;resizeParent=1;resizeParentMax=0;resizeLast=0;collapsible=1;marginBottom=0;whiteSpace=wrap;html=1;" vertex="1" parent="sPSupXaPWO5JqcNPg5AE-15">
          <mxGeometry x="880" y="362" width="140" height="52" as="geometry">
            <mxRectangle x="70" y="440" width="100" height="30" as="alternateBounds" />
          </mxGeometry>
        </mxCell>
        <mxCell id="sPSupXaPWO5JqcNPg5AE-22" value="ColorOption" style="swimlane;fontStyle=0;childLayout=stackLayout;horizontal=1;startSize=26;fillColor=none;horizontalStack=0;resizeParent=1;resizeParentMax=0;resizeLast=0;collapsible=1;marginBottom=0;whiteSpace=wrap;html=1;" vertex="1" parent="sPSupXaPWO5JqcNPg5AE-15">
          <mxGeometry x="880" y="290" width="140" height="52" as="geometry">
            <mxRectangle x="210" y="440" width="100" height="30" as="alternateBounds" />
          </mxGeometry>
        </mxCell>
        <mxCell id="sPSupXaPWO5JqcNPg5AE-25" value="&lt;div&gt;ProductAttributeTemplate&lt;/div&gt;" style="swimlane;fontStyle=0;childLayout=stackLayout;horizontal=1;startSize=26;fillColor=none;horizontalStack=0;resizeParent=1;resizeParentMax=0;resizeLast=0;collapsible=1;marginBottom=0;whiteSpace=wrap;html=1;" vertex="1" parent="sPSupXaPWO5JqcNPg5AE-15">
          <mxGeometry x="880" y="840" width="180" height="52" as="geometry">
            <mxRectangle x="50" y="140" width="100" height="30" as="alternateBounds" />
          </mxGeometry>
        </mxCell>
        <mxCell id="sPSupXaPWO5JqcNPg5AE-27" value="ProductAttributeValue" style="swimlane;fontStyle=0;childLayout=stackLayout;horizontal=1;startSize=26;fillColor=none;horizontalStack=0;resizeParent=1;resizeParentMax=0;resizeLast=0;collapsible=1;marginBottom=0;whiteSpace=wrap;html=1;" vertex="1" parent="sPSupXaPWO5JqcNPg5AE-15">
          <mxGeometry x="880" y="670" width="220" height="52" as="geometry">
            <mxRectangle x="50" y="140" width="100" height="30" as="alternateBounds" />
          </mxGeometry>
        </mxCell>
        <mxCell id="sPSupXaPWO5JqcNPg5AE-29" value="ProductImage" style="swimlane;fontStyle=0;childLayout=stackLayout;horizontal=1;startSize=26;fillColor=none;horizontalStack=0;resizeParent=1;resizeParentMax=0;resizeLast=0;collapsible=1;marginBottom=0;whiteSpace=wrap;html=1;" vertex="1" parent="sPSupXaPWO5JqcNPg5AE-15">
          <mxGeometry x="880" y="750" width="140" height="52" as="geometry">
            <mxRectangle x="210" y="440" width="100" height="30" as="alternateBounds" />
          </mxGeometry>
        </mxCell>
        <mxCell id="sPSupXaPWO5JqcNPg5AE-31" value="ProuctType" style="swimlane;fontStyle=0;childLayout=stackLayout;horizontal=1;startSize=20;fillColor=none;horizontalStack=0;resizeParent=1;resizeParentMax=0;resizeLast=0;collapsible=1;marginBottom=0;whiteSpace=wrap;html=1;" vertex="1" parent="sPSupXaPWO5JqcNPg5AE-15">
          <mxGeometry x="880" y="930" width="160" height="46" as="geometry">
            <mxRectangle x="50" y="140" width="100" height="30" as="alternateBounds" />
          </mxGeometry>
        </mxCell>
        <mxCell id="sPSupXaPWO5JqcNPg5AE-33" value="ProductVariant" style="swimlane;fontStyle=0;childLayout=stackLayout;horizontal=1;startSize=26;fillColor=none;horizontalStack=0;resizeParent=1;resizeParentMax=0;resizeLast=0;collapsible=1;marginBottom=0;whiteSpace=wrap;html=1;" vertex="1" parent="sPSupXaPWO5JqcNPg5AE-15">
          <mxGeometry x="880" y="440" width="140" height="58" as="geometry">
            <mxRectangle x="210" y="440" width="100" height="30" as="alternateBounds" />
          </mxGeometry>
        </mxCell>
        <mxCell id="sPSupXaPWO5JqcNPg5AE-35" value="ProductVariantImage" style="swimlane;fontStyle=0;childLayout=stackLayout;horizontal=1;startSize=26;fillColor=none;horizontalStack=0;resizeParent=1;resizeParentMax=0;resizeLast=0;collapsible=1;marginBottom=0;whiteSpace=wrap;html=1;" vertex="1" parent="sPSupXaPWO5JqcNPg5AE-15">
          <mxGeometry x="880" y="550" width="190" height="52" as="geometry">
            <mxRectangle x="210" y="440" width="100" height="30" as="alternateBounds" />
          </mxGeometry>
        </mxCell>
        <mxCell id="sPSupXaPWO5JqcNPg5AE-39" value="Category" style="swimlane;" vertex="1" parent="sPSupXaPWO5JqcNPg5AE-15">
          <mxGeometry x="50" y="50" width="190" height="300" as="geometry" />
        </mxCell>
        <mxCell id="sPSupXaPWO5JqcNPg5AE-40" value="&lt;div&gt;CategoryRequest&lt;/div&gt;" style="swimlane;fontStyle=0;childLayout=stackLayout;horizontal=1;startSize=26;fillColor=none;horizontalStack=0;resizeParent=1;resizeParentMax=0;resizeLast=0;collapsible=1;marginBottom=0;whiteSpace=wrap;html=1;" vertex="1" parent="sPSupXaPWO5JqcNPg5AE-39">
          <mxGeometry x="10" y="38" width="160" height="104" as="geometry">
            <mxRectangle x="50" y="140" width="100" height="30" as="alternateBounds" />
          </mxGeometry>
        </mxCell>
        <mxCell id="sPSupXaPWO5JqcNPg5AE-42" value="&lt;div&gt;- name: String&lt;/div&gt;" style="text;strokeColor=none;fillColor=none;align=left;verticalAlign=top;spacingLeft=4;spacingRight=4;overflow=hidden;rotatable=0;points=[[0,0.5],[1,0.5]];portConstraint=eastwest;whiteSpace=wrap;html=1;" vertex="1" parent="sPSupXaPWO5JqcNPg5AE-40">
          <mxGeometry y="26" width="160" height="26" as="geometry" />
        </mxCell>
        <mxCell id="sPSupXaPWO5JqcNPg5AE-43" value="&lt;div&gt;- slug: String&lt;/div&gt;" style="text;strokeColor=none;fillColor=none;align=left;verticalAlign=top;spacingLeft=4;spacingRight=4;overflow=hidden;rotatable=0;points=[[0,0.5],[1,0.5]];portConstraint=eastwest;whiteSpace=wrap;html=1;" vertex="1" parent="sPSupXaPWO5JqcNPg5AE-40">
          <mxGeometry y="52" width="160" height="26" as="geometry" />
        </mxCell>
        <mxCell id="sPSupXaPWO5JqcNPg5AE-44" value="&lt;div&gt;- parentCategoryId: Long&lt;/div&gt;&lt;div&gt;&lt;br&gt;&lt;/div&gt;" style="text;strokeColor=none;fillColor=none;align=left;verticalAlign=top;spacingLeft=4;spacingRight=4;overflow=hidden;rotatable=0;points=[[0,0.5],[1,0.5]];portConstraint=eastwest;whiteSpace=wrap;html=1;" vertex="1" parent="sPSupXaPWO5JqcNPg5AE-40">
          <mxGeometry y="78" width="160" height="26" as="geometry" />
        </mxCell>
        <mxCell id="sPSupXaPWO5JqcNPg5AE-46" value="CategoryDto" style="swimlane;fontStyle=0;childLayout=stackLayout;horizontal=1;startSize=26;fillColor=none;horizontalStack=0;resizeParent=1;resizeParentMax=0;resizeLast=0;collapsible=1;marginBottom=0;whiteSpace=wrap;html=1;" vertex="1" parent="sPSupXaPWO5JqcNPg5AE-39">
          <mxGeometry x="10" y="160" width="160" height="104" as="geometry">
            <mxRectangle x="50" y="140" width="100" height="30" as="alternateBounds" />
          </mxGeometry>
        </mxCell>
        <mxCell id="sPSupXaPWO5JqcNPg5AE-47" value="&lt;div&gt;- name: String&lt;/div&gt;" style="text;strokeColor=none;fillColor=none;align=left;verticalAlign=top;spacingLeft=4;spacingRight=4;overflow=hidden;rotatable=0;points=[[0,0.5],[1,0.5]];portConstraint=eastwest;whiteSpace=wrap;html=1;" vertex="1" parent="sPSupXaPWO5JqcNPg5AE-46">
          <mxGeometry y="26" width="160" height="26" as="geometry" />
        </mxCell>
        <mxCell id="sPSupXaPWO5JqcNPg5AE-48" value="&lt;div&gt;- slug: String&lt;/div&gt;" style="text;strokeColor=none;fillColor=none;align=left;verticalAlign=top;spacingLeft=4;spacingRight=4;overflow=hidden;rotatable=0;points=[[0,0.5],[1,0.5]];portConstraint=eastwest;whiteSpace=wrap;html=1;" vertex="1" parent="sPSupXaPWO5JqcNPg5AE-46">
          <mxGeometry y="52" width="160" height="26" as="geometry" />
        </mxCell>
        <mxCell id="sPSupXaPWO5JqcNPg5AE-49" value="&lt;div&gt;- parentCategoryId: Long&lt;/div&gt;&lt;div&gt;&lt;br&gt;&lt;/div&gt;" style="text;strokeColor=none;fillColor=none;align=left;verticalAlign=top;spacingLeft=4;spacingRight=4;overflow=hidden;rotatable=0;points=[[0,0.5],[1,0.5]];portConstraint=eastwest;whiteSpace=wrap;html=1;" vertex="1" parent="sPSupXaPWO5JqcNPg5AE-46">
          <mxGeometry y="78" width="160" height="26" as="geometry" />
        </mxCell>
        <mxCell id="sPSupXaPWO5JqcNPg5AE-50" value="Brand" style="swimlane;startSize=23;" vertex="1" parent="sPSupXaPWO5JqcNPg5AE-15">
          <mxGeometry x="270" y="50" width="190" height="300" as="geometry" />
        </mxCell>
        <mxCell id="sPSupXaPWO5JqcNPg5AE-51" value="&lt;div&gt;BrandRequest&lt;/div&gt;" style="swimlane;fontStyle=0;childLayout=stackLayout;horizontal=1;startSize=26;fillColor=none;horizontalStack=0;resizeParent=1;resizeParentMax=0;resizeLast=0;collapsible=1;marginBottom=0;whiteSpace=wrap;html=1;" vertex="1" parent="sPSupXaPWO5JqcNPg5AE-50">
          <mxGeometry x="10" y="38" width="160" height="78" as="geometry">
            <mxRectangle x="50" y="140" width="100" height="30" as="alternateBounds" />
          </mxGeometry>
        </mxCell>
        <mxCell id="sPSupXaPWO5JqcNPg5AE-52" value="&lt;div&gt;- name: String&lt;/div&gt;" style="text;strokeColor=none;fillColor=none;align=left;verticalAlign=top;spacingLeft=4;spacingRight=4;overflow=hidden;rotatable=0;points=[[0,0.5],[1,0.5]];portConstraint=eastwest;whiteSpace=wrap;html=1;" vertex="1" parent="sPSupXaPWO5JqcNPg5AE-51">
          <mxGeometry y="26" width="160" height="26" as="geometry" />
        </mxCell>
        <mxCell id="sPSupXaPWO5JqcNPg5AE-53" value="- description: String" style="text;strokeColor=none;fillColor=none;align=left;verticalAlign=top;spacingLeft=4;spacingRight=4;overflow=hidden;rotatable=0;points=[[0,0.5],[1,0.5]];portConstraint=eastwest;whiteSpace=wrap;html=1;" vertex="1" parent="sPSupXaPWO5JqcNPg5AE-51">
          <mxGeometry y="52" width="160" height="26" as="geometry" />
        </mxCell>
        <mxCell id="sPSupXaPWO5JqcNPg5AE-55" value="BrandDto" style="swimlane;fontStyle=0;childLayout=stackLayout;horizontal=1;startSize=26;fillColor=none;horizontalStack=0;resizeParent=1;resizeParentMax=0;resizeLast=0;collapsible=1;marginBottom=0;whiteSpace=wrap;html=1;" vertex="1" parent="sPSupXaPWO5JqcNPg5AE-50">
          <mxGeometry x="10" y="160" width="160" height="104" as="geometry">
            <mxRectangle x="50" y="140" width="100" height="30" as="alternateBounds" />
          </mxGeometry>
        </mxCell>
        <mxCell id="sPSupXaPWO5JqcNPg5AE-56" value="&lt;div&gt;- name: String&lt;/div&gt;" style="text;strokeColor=none;fillColor=none;align=left;verticalAlign=top;spacingLeft=4;spacingRight=4;overflow=hidden;rotatable=0;points=[[0,0.5],[1,0.5]];portConstraint=eastwest;whiteSpace=wrap;html=1;" vertex="1" parent="sPSupXaPWO5JqcNPg5AE-55">
          <mxGeometry y="26" width="160" height="26" as="geometry" />
        </mxCell>
        <mxCell id="sPSupXaPWO5JqcNPg5AE-57" value="- description: String" style="text;strokeColor=none;fillColor=none;align=left;verticalAlign=top;spacingLeft=4;spacingRight=4;overflow=hidden;rotatable=0;points=[[0,0.5],[1,0.5]];portConstraint=eastwest;whiteSpace=wrap;html=1;" vertex="1" parent="sPSupXaPWO5JqcNPg5AE-55">
          <mxGeometry y="52" width="160" height="26" as="geometry" />
        </mxCell>
        <mxCell id="sPSupXaPWO5JqcNPg5AE-58" value="-imgUrl: String" style="text;strokeColor=none;fillColor=none;align=left;verticalAlign=top;spacingLeft=4;spacingRight=4;overflow=hidden;rotatable=0;points=[[0,0.5],[1,0.5]];portConstraint=eastwest;whiteSpace=wrap;html=1;" vertex="1" parent="sPSupXaPWO5JqcNPg5AE-55">
          <mxGeometry y="78" width="160" height="26" as="geometry" />
        </mxCell>
        <mxCell id="sPSupXaPWO5JqcNPg5AE-62" value="Product" style="swimlane;startSize=23;" vertex="1" parent="sPSupXaPWO5JqcNPg5AE-15">
          <mxGeometry x="490" y="50" width="190" height="310" as="geometry" />
        </mxCell>
        <mxCell id="sPSupXaPWO5JqcNPg5AE-63" value="ProductRequest" style="swimlane;fontStyle=0;childLayout=stackLayout;horizontal=1;startSize=26;fillColor=none;horizontalStack=0;resizeParent=1;resizeParentMax=0;resizeLast=0;collapsible=1;marginBottom=0;whiteSpace=wrap;html=1;" vertex="1" parent="sPSupXaPWO5JqcNPg5AE-62">
          <mxGeometry x="10" y="38" width="160" height="156" as="geometry">
            <mxRectangle x="50" y="140" width="100" height="30" as="alternateBounds" />
          </mxGeometry>
        </mxCell>
        <mxCell id="sPSupXaPWO5JqcNPg5AE-64" value="&lt;div&gt;- name: String&lt;/div&gt;" style="text;strokeColor=none;fillColor=none;align=left;verticalAlign=top;spacingLeft=4;spacingRight=4;overflow=hidden;rotatable=0;points=[[0,0.5],[1,0.5]];portConstraint=eastwest;whiteSpace=wrap;html=1;" vertex="1" parent="sPSupXaPWO5JqcNPg5AE-63">
          <mxGeometry y="26" width="160" height="26" as="geometry" />
        </mxCell>
        <mxCell id="sPSupXaPWO5JqcNPg5AE-65" value="- description: String" style="text;strokeColor=none;fillColor=none;align=left;verticalAlign=top;spacingLeft=4;spacingRight=4;overflow=hidden;rotatable=0;points=[[0,0.5],[1,0.5]];portConstraint=eastwest;whiteSpace=wrap;html=1;" vertex="1" parent="sPSupXaPWO5JqcNPg5AE-63">
          <mxGeometry y="52" width="160" height="26" as="geometry" />
        </mxCell>
        <mxCell id="sPSupXaPWO5JqcNPg5AE-71" value="- categoryId: Long" style="text;strokeColor=none;fillColor=none;align=left;verticalAlign=top;spacingLeft=4;spacingRight=4;overflow=hidden;rotatable=0;points=[[0,0.5],[1,0.5]];portConstraint=eastwest;whiteSpace=wrap;html=1;" vertex="1" parent="sPSupXaPWO5JqcNPg5AE-63">
          <mxGeometry y="78" width="160" height="26" as="geometry" />
        </mxCell>
        <mxCell id="sPSupXaPWO5JqcNPg5AE-73" value="- brandId: Long" style="text;strokeColor=none;fillColor=none;align=left;verticalAlign=top;spacingLeft=4;spacingRight=4;overflow=hidden;rotatable=0;points=[[0,0.5],[1,0.5]];portConstraint=eastwest;whiteSpace=wrap;html=1;" vertex="1" parent="sPSupXaPWO5JqcNPg5AE-63">
          <mxGeometry y="104" width="160" height="26" as="geometry" />
        </mxCell>
        <mxCell id="sPSupXaPWO5JqcNPg5AE-72" value="- productTypeId: Long" style="text;strokeColor=none;fillColor=none;align=left;verticalAlign=top;spacingLeft=4;spacingRight=4;overflow=hidden;rotatable=0;points=[[0,0.5],[1,0.5]];portConstraint=eastwest;whiteSpace=wrap;html=1;" vertex="1" parent="sPSupXaPWO5JqcNPg5AE-63">
          <mxGeometry y="130" width="160" height="26" as="geometry" />
        </mxCell>
        <mxCell id="sPSupXaPWO5JqcNPg5AE-66" value="BrandDto" style="swimlane;fontStyle=0;childLayout=stackLayout;horizontal=1;startSize=26;fillColor=none;horizontalStack=0;resizeParent=1;resizeParentMax=0;resizeLast=0;collapsible=1;marginBottom=0;whiteSpace=wrap;html=1;" vertex="1" parent="sPSupXaPWO5JqcNPg5AE-62">
          <mxGeometry x="10" y="198" width="160" height="104" as="geometry">
            <mxRectangle x="50" y="140" width="100" height="30" as="alternateBounds" />
          </mxGeometry>
        </mxCell>
        <mxCell id="sPSupXaPWO5JqcNPg5AE-67" value="&lt;div&gt;- name: String&lt;/div&gt;" style="text;strokeColor=none;fillColor=none;align=left;verticalAlign=top;spacingLeft=4;spacingRight=4;overflow=hidden;rotatable=0;points=[[0,0.5],[1,0.5]];portConstraint=eastwest;whiteSpace=wrap;html=1;" vertex="1" parent="sPSupXaPWO5JqcNPg5AE-66">
          <mxGeometry y="26" width="160" height="26" as="geometry" />
        </mxCell>
        <mxCell id="sPSupXaPWO5JqcNPg5AE-68" value="- description: String" style="text;strokeColor=none;fillColor=none;align=left;verticalAlign=top;spacingLeft=4;spacingRight=4;overflow=hidden;rotatable=0;points=[[0,0.5],[1,0.5]];portConstraint=eastwest;whiteSpace=wrap;html=1;" vertex="1" parent="sPSupXaPWO5JqcNPg5AE-66">
          <mxGeometry y="52" width="160" height="26" as="geometry" />
        </mxCell>
        <mxCell id="sPSupXaPWO5JqcNPg5AE-69" value="-imgUrl: String" style="text;strokeColor=none;fillColor=none;align=left;verticalAlign=top;spacingLeft=4;spacingRight=4;overflow=hidden;rotatable=0;points=[[0,0.5],[1,0.5]];portConstraint=eastwest;whiteSpace=wrap;html=1;" vertex="1" parent="sPSupXaPWO5JqcNPg5AE-66">
          <mxGeometry y="78" width="160" height="26" as="geometry" />
        </mxCell>
      </root>
    </mxGraphModel>
  </diagram>
</mxfile>
